HIERARCHY
ROOT Hips
{
 OFFSET 0.000000 0.000000 0.000000
 CHANNELS 6 Xposition Yposition Zposition Yrotation Xrotation Zrotation
 JOINT Chest
 {
  OFFSET 0.000000 9.585900 0.002600
  CHANNELS 3 Yrotation Xrotation Zrotation
  JOINT Chest2
  {
   OFFSET 0.000000 9.601200 -0.005300
   CHANNELS 3 Yrotation Xrotation Zrotation
   JOINT Chest3
   {
    OFFSET 0.000000 9.561800 0.000000
    CHANNELS 3 Yrotation Xrotation Zrotation
    JOINT Chest4
    {
     OFFSET 0.000000 9.552100 0.000000
     CHANNELS 3 Yrotation Xrotation Zrotation
     JOINT Neck
     {
      OFFSET 0.000000 14.453000 0.000000
      CHANNELS 3 Yrotation Xrotation Zrotation
      JOINT Head
      {
       OFFSET 0.000000 8.936500 -0.011300
       CHANNELS 3 Yrotation Xrotation Zrotation
       End Site
       {
        OFFSET 0.000000 17.073600 -0.006000
       }
      }
     }
     JOINT RightCollar
     {
      OFFSET -2.921100 9.558500 0.000000
      CHANNELS 3 Yrotation Xrotation Zrotation
      JOINT RightShoulder
      {
       OFFSET -13.519700 0.000000 0.000000
       CHANNELS 3 Yrotation Xrotation Zrotation
       JOINT RightElbow
       {
        OFFSET 0.000000 -29.696600 0.000000
        CHANNELS 3 Yrotation Xrotation Zrotation
        JOINT RightWrist
        {
         OFFSET 0.000000 -24.004700 0.000000
         CHANNELS 3 Yrotation Xrotation Zrotation
         End Site
         {
          OFFSET 0.000000 -17.728500 0.000000
         }
        }
       }
      }
     }
     JOINT LeftCollar
     {
      OFFSET 2.921100 9.558500 0.000000
      CHANNELS 3 Yrotation Xrotation Zrotation
      JOINT LeftShoulder
      {
       OFFSET 13.519700 0.000000 0.000000
       CHANNELS 3 Yrotation Xrotation Zrotation
       JOINT LeftElbow
       {
        OFFSET 0.000000 -29.696600 0.000000
        CHANNELS 3 Yrotation Xrotation Zrotation
        JOINT LeftWrist
        {
         OFFSET 0.000000 -24.004700 0.000000
         CHANNELS 3 Yrotation Xrotation Zrotation
         End Site
         {
          OFFSET 0.000000 -17.728500 0.000000
         }
        }
       }
      }
     }
    }
   }
  }
 }
 JOINT RightHip
 {
  OFFSET -7.771700 -0.012900 -0.001300
  CHANNELS 3 Yrotation Xrotation Zrotation
  JOINT RightKnee
  {
   OFFSET 0.000000 -40.869800 0.001200
   CHANNELS 3 Yrotation Xrotation Zrotation
   JOINT RightAnkle
   {
    OFFSET 0.000000 -39.717900 0.002100
    CHANNELS 3 Yrotation Xrotation Zrotation
    JOINT RightToe
    {
     OFFSET 0.000000 -4.965400 11.033500
     CHANNELS 3 Yrotation Xrotation Zrotation
     End Site
     {
      OFFSET 0.000000 -1.423100 5.872300
     }
    }
   }
  }
 }
 JOINT LeftHip
 {
  OFFSET 7.771700 -0.012900 -0.001300
  CHANNELS 3 Yrotation Xrotation Zrotation
  JOINT LeftKnee
  {
   OFFSET 0.000000 -40.869800 0.001200
   CHANNELS 3 Yrotation Xrotation Zrotation
   JOINT LeftAnkle
   {
    OFFSET 0.000000 -39.717900 0.002100
    CHANNELS 3 Yrotation Xrotation Zrotation
    JOINT LeftToe
    {
     OFFSET 0.000000 -4.965400 11.033500
     CHANNELS 3 Yrotation Xrotation Zrotation
     End Site
     {
      OFFSET 0.000000 -1.423100 5.872300
     }
    }
   }
  }
 }
}
MOTION
Frames: 8
Frame Time: 0.008333
0.000000 85.388000 0.000000 0.000000 -5.767877 0.000000 0.000000 11.653817 0.000000 0.000000 -5.885947 0.000000 0.000000 -0.000000 0.000000 0.000000 -0.000000 0.000000 0.000000 12.528835 0.000000 0.000000 0.711642 0.000000 0.000000 -0.000000 0.000000 0.000000 0.000000 -90.000000 0.000000 -2.309062 0.000000 0.000000 2.309062 0.000000 0.000000 -0.000000 0.000000 0.000000 -0.000000 90.000000 0.000000 -2.309062 0.000000 0.000000 2.309062 0.000000 0.000000 8.520406 0.000000 0.000000 1.905762 0.000000 -0.000000 -4.658285 0.000000 0.000000 -0.000000 0.000000 0.000000 8.520406 0.000000 0.000000 1.905762 0.000000 -0.000000 -4.658285 0.000000 0.000000 -0.000000 0.000000
-0.774701 52.159262 35.550472 172.118729 -37.311535 -2.305166 3.114550 22.002650 2.071019 0.378883 3.029616 0.389024 0.623654 4.952486 0.657537 2.713682 18.531890 2.823352 -0.557891 14.319918 -3.411789 0.257829 -9.156468 -6.197278 -4.880165 -0.695812 -3.025858 -5.452941 -5.898473 0.481088 -92.290815 -37.956741 128.992291 0.004330 12.173831 50.649004 -5.061103 0.993067 0.141329 13.585717 -5.671865 3.077815 78.211284 -30.690896 -128.057419 6.643468 13.340271 -50.172990 -4.931604 -43.655142 3.158082 172.250313 86.161196 176.803468 0.278667 -12.110182 -3.174225 0.048164 -0.223369 0.004737 -0.093164 -40.352788 5.620977 71.998237 82.877608 61.531282 -6.275709 -12.586394 9.620236 0.513370 1.748898 0.241770
-0.771994 52.153660 35.542334 172.137811 -37.343898 -2.328738 3.105406 22.043488 2.090133 0.377295 3.047287 0.396121 0.619174 5.031446 0.684402 2.698053 18.559174 2.833331 -0.544856 14.354812 -3.451098 0.295612 -9.089693 -6.274985 -4.885103 -0.695243 -3.001749 -5.442327 -5.947936 0.500356 -92.161178 -37.845533 128.802825 -0.078336 12.162091 50.401980 -5.105506 1.012639 0.172408 13.543797 -5.658292 3.068451 78.201572 -30.716323 -128.074908 6.351683 13.503800 -50.688392 -4.944210 -43.620962 3.136043 171.810507 86.142846 176.404150 0.280270 -12.124862 -3.205985 0.051718 -0.223165 0.003953 -0.086542 -40.331239 5.641030 72.082946 82.918871 61.608406 -6.236106 -12.591719 9.636545 0.479449 1.730636 0.243726
-0.763789 52.151506 35.529020 172.110339 -37.418880 -2.352875 3.145670 22.152696 2.154499 0.375802 3.066433 0.400844 0.619827 5.065292 0.694480 2.684143 18.607212 2.853585 -0.528814 14.388478 -3.484316 0.336711 -9.025304 -6.342359 -4.890074 -0.698988 -2.974865 -5.437039 -5.987545 0.511862 -92.060133 -37.748610 128.632521 -0.114010 12.166168 50.251214 -5.146869 1.028310 0.199448 13.492080 -5.663039 3.060831 78.225864 -30.780768 -128.109521 5.985003 13.709419 -51.312006 -4.942462 -43.541130 3.172924 171.726487 86.132216 176.341575 0.284211 -12.134667 -3.218199 0.049040 -0.226114 0.004220 -0.071795 -40.267132 5.713684 72.258835 82.969503 61.749727 -6.149812 -12.573397 9.708467 0.386957 1.670315 0.199334
-0.762143 52.143552 35.521613 172.117170 -37.439290 -2.364494 3.148092 22.257846 2.206027 0.372841 3.089624 0.403610 0.617017 5.004045 0.666524 2.679690 18.701489 2.899041 -0.511473 14.421224 -3.512136 0.378286 -8.962759 -6.400133 -4.895908 -0.702555 -2.951229 -5.432306 -6.080170 0.484235 -91.947864 -37.633218 128.404528 -0.098731 12.184791 50.210791 -5.187075 1.041920 0.219252 13.432456 -5.685868 3.054690 78.265466 -30.874904 -128.159041 5.547401 13.962609 -52.031041 -4.945374 -43.525620 3.158206 171.349059 86.110845 175.991907 0.279724 -12.149573 -3.238732 0.053090 -0.224949 0.010526 -0.058885 -40.255217 5.737735 72.361219 83.006429 61.840408 -6.160591 -12.583998 9.738526 0.387514 1.665079 0.194605
-0.760354 52.135468 35.515171 172.129625 -37.453868 -2.382306 3.145785 22.317569 2.241485 0.372486 3.125892 0.417195 0.615424 5.042106 0.678064 2.667693 18.725186 2.913331 -0.493432 14.453520 -3.533973 0.418819 -8.901082 -6.446881 -4.902195 -0.700898 -2.931399 -5.463625 -6.070281 0.508452 -91.911675 -37.580814 128.324223 -0.030569 12.214610 50.283929 -5.225994 1.055740 0.234511 13.363960 -5.725644 3.051135 78.310861 -30.985275 -128.219945 5.039319 14.264202 -52.832316 -4.960165 -43.515455 3.155714 171.058297 86.091223 175.720764 0.276017 -12.162379 -3.251227 0.053535 -0.224052 0.007473 -0.054929 -40.249363 5.766423 72.450518 83.040693 61.922580 -6.183896 -12.593768 9.751274 0.396136 1.664078 0.203951
-0.763317 52.125493 35.512045 172.184157 -37.441102 -2.402095 3.097292 22.341462 2.244167 0.373289 3.156297 0.430106 0.616313 5.097002 0.697539 2.660793 18.749685 2.931495 -0.476317 14.485120 -3.550406 0.455464 -8.840865 -6.483002 -4.910463 -0.692845 -2.916490 -5.508732 -6.044652 0.530958 -91.903549 -37.544624 128.281025 0.090137 12.255325 50.464804 -5.265586 1.068608 0.246021 13.288355 -5.780112 3.049399 78.358631 -31.110882 -128.285471 4.465498 14.601102 -53.707761 -4.989635 -43.535375 3.121145 170.769661 86.065970 175.447657 0.275548 -12.177350 -3.258487 0.052796 -0.223435 0.002780 -0.069579 -40.269019 5.762035 72.498689 83.069233 61.973634 -6.263450 -12.624862 9.745308 0.459597 1.699577 0.235406
-0.760611 52.122315 35.503528 172.188872 -37.484549 -2.423537 3.104133 22.395402 2.272958 0.376238 3.206846 0.455862 0.617886 5.129293 0.708512 2.662529 18.798100 2.963309 -0.461482 14.516311 -3.561265 0.485761 -8.781802 -6.507943 -4.922696 -0.678166 -2.907501 -5.553476 -6.038820 0.534753 -91.907738 -37.511066 128.225085 0.258510 12.311583 50.754504 -5.305254 1.080399 0.255158 13.206861 -5.845558 3.048267 78.418579 -31.262796 -128.359362 3.848967 14.959926 -54.642506 -4.999571 -43.489456 3.118522 170.400843 86.051327 175.104788 0.278567 -12.184257 -3.274163 0.052455 -0.226404 0.004582 -0.064825 -40.227371 5.803177 72.574765 83.105394 62.033587 -6.266071 -12.640651 9.770943 0.439466 1.696632 0.238289
